<?xml version="1.0" standalone="no"?>
<!DOCTYPE svg PUBLIC "-//W3C//DTD SVG 20010904//EN"
 "http://www.w3.org/TR/2001/REC-SVG-20010904/DTD/svg10.dtd">
<svg version="1.0" xmlns="http://www.w3.org/2000/svg"
 width="508.000000pt" height="508.000000pt" viewBox="0 0 508.000000 508.000000"
 preserveAspectRatio="xMidYMid meet">
<metadata>
Created by potrace 1.14, written by Peter Selinger 2001-2017
</metadata>
<g transform="translate(0.000000,508.000000) scale(0.100000,-0.100000)"
fill="#000000" stroke="none">
<path d="M2434 5002 c-55 -37 -183 -121 -285 -187 -101 -65 -217 -141 -257
-167 -41 -26 -77 -48 -82 -48 -5 0 -10 -3 -12 -8 -1 -4 -34 -27 -73 -52 -38
-25 -71 -48 -73 -52 -2 -5 -8 -8 -13 -8 -4 0 -68 -39 -141 -86 -170 -111 -444
-290 -485 -318 l-33 -21 3 -1519 2 -1519 45 -33 c25 -18 49 -33 53 -33 4 -1
13 -6 20 -12 7 -5 48 -33 92 -62 75 -48 272 -175 305 -197 153 -100 300 -195
500 -325 135 -87 309 -200 388 -252 79 -51 148 -93 155 -92 14 1 17 2 512 324
212 138 393 255 402 260 10 6 20 12 23 15 3 3 82 55 175 115 94 60 233 150
310 201 l140 91 0 1521 c0 836 -2 1522 -5 1524 -3 3 -23 15 -45 28 -22 13
-100 64 -173 112 -73 48 -135 88 -138 88 -3 0 -10 5 -17 11 -7 5 -41 29 -77
52 -36 22 -128 82 -205 132 -77 50 -174 113 -215 140 -41 27 -124 81 -185 120
-331 216 -489 317 -499 320 -6 2 -56 -27 -112 -63z"/>
</g>
</svg>
